<?xml version="1.0" encoding="utf-8"?>
<!-- Generator: Adobe Illustrator 19.2.1, SVG Export Plug-In . SVG Version: 6.00 Build 0)  -->
<svg version="1.1" id="Layer_1" xmlns="http://www.w3.org/2000/svg" xmlns:xlink="http://www.w3.org/1999/xlink" x="0px" y="0px"
	 viewBox="0 0 800 800" style="enable-background:new 0 0 800 800;" xml:space="preserve">
<style type="text/css">
	.st0{fill:#21BF00;}
	.st1{fill:#009444;}
	.st2{fill:#4BEA53;}
	.st3{fill:none;}
	.st4{fill:#58595B;}
	.st5{font-family:'Avenir-Black';}
	.st6{font-size:84.0602px;}
	.st7{letter-spacing:-1;}
</style>
<g>
	<g>
		<g>
			<path class="st0" d="M379.2,480c-17,0-41.4-2.2-61.1-12.6c-18.3-9.6-28.3-24.5-29-43c-0.4-12.9-11.2-32.4-29.7-53.6
				c-16.2-18.6-32.1-31-36.8-31c-0.3,0-0.4,0.1-0.4,0.1c-2.8,1.7-7,2.6-11.6,2.6c0,0,0,0,0,0c-8.8,0-18.2-3.2-25-8.6
				c-6.1-4.8-13.3-13.6-13.3-28.7c0-29.5,12-46.4,32.7-46.4c8.6,0,18.5,2.9,29.5,8.7c7.2,3.8,11.9,9.6,13.9,17.1
				c2.8,10.5-0.4,22.1-4.8,29c-0.2,0.3-0.2,2.1,2.1,6.3c4.7,8.5,17.3,24.2,34,38.7c18.1,15.7,34.7,24.3,46.7,24.3c0,0,0,0,0,0
				c3.3,0,6.4-0.7,9-2c1.4-0.7,3.9-3.8,4.4-16.6c1.4-41.6-19.3-132.7-25.5-137.3c-0.1,0-0.2,0-0.3,0c-5.6,0-17.1-8.1-24.3-18.9
				c-4.6-7-9.1-17.6-4.4-28.6c3-7,9-12.8,17.3-16.6c7.2-3.3,16-5.2,24.9-5.2c14.3,0,26.1,4.5,30.8,11.7c7.2,11.1,8.5,28.1,3,40.4
				c-3.9,8.6-10.5,13.9-19.1,15.3c-2.5,6.3,8.1,68.1,25.1,110.1c8.8,21.8,17.9,34.5,26.1,36.6c0.2,0.1,0.4,0.1,0.7,0.1c0,0,0,0,0,0
				c1.6,0,4.5-1.4,9-8c22-32.4,49-137.7,46.8-144.8c-2.1-2.1-15-18.3-15.8-34c-0.4-6.8,1.6-12.6,5.8-17.2
				c9.8-10.7,22.6-16.6,36-16.6c22.4,0,40.7,16.1,44.5,39.1c4.1,25.2-20,32.9-31.6,36.7c-2,0.6-3.7,1.2-4.6,1.6
				c-2.3,1.7-14.3,26.6-25.4,57.3c-7.8,21.8-20.5,61.5-17.4,83.5c1.1,7.5,3.9,12.1,8.4,13.8c4.5,1.7,10,2.6,16.3,2.6
				c29.7,0,71.1-18.8,82.8-33.6c1.7-2.1,3.5-5.1,2.9-7.8c-0.8-3.5,1.2-9,5.4-14.2c7.3-9.3,18.5-14.8,29.8-14.8
				c5.1,0,10.3,1.1,15.5,3.2c13.4,5.5,22.1,14,25.1,24.7c3.1,11.3-0.2,24.7-9.1,36.6c-8.9,11.8-20.2,14.3-28.1,14.3
				c-11.6,0-23.8-5.5-29.7-13.4c-1-1.4-2.7-2.1-5.1-2.1c-18.7,0-66.7,39.9-73,45.2c0.3,1.9,0.8,6.2-0.6,11.8
				c-1.6,6.6-6.3,16.2-19.2,24.3C443.9,472.3,411,480,379.2,480z"/>
			<path class="st1" d="M476,153.1c20.2,0,39.1,14.1,43,37.8c4.7,28.4-29.3,33.7-35.4,36.7c-6.1,3-67.6,144.7-34.2,157.4
				c4.9,1.8,10.6,2.7,16.9,2.7c36.7,0,90.7-28.2,87.2-43.2c-1.7-7.3,12.1-27.1,33.7-27.1c4.6,0,9.7,0.9,14.9,3.1
				c32,13,29.4,40.1,15.3,59c-7.5,10-17.4,13.7-26.9,13.7c-12,0-23.4-6-28.5-12.8c-1.4-1.9-3.5-2.7-6.3-2.7
				c-20.7,0-74.6,46.1-74.6,46.1s5.2,20.2-19,35.4c-18.9,11.8-51.3,19.4-82.9,19.4c-44.4,0-87.2-15-88.6-54.1
				c-0.9-30.6-56.6-86.1-68-86.1c-0.5,0-0.8,0.1-1.2,0.3c-2.6,1.6-6.5,2.4-10.8,2.4c-15.2,0-36.8-10.1-36.8-35.7
				c0-26.5,10.2-44.9,31.2-44.9c8,0,17.6,2.7,28.9,8.6c19.4,10.2,15.3,33.3,8.6,43.9c-5,7.8,50.1,71.7,84,71.7
				c3.5,0,6.7-0.7,9.7-2.1c17.4-8.7-13.3-156.7-21.6-156.7c0,0,0,0-0.1,0c-0.1,0-0.3,0-0.4,0c-8.8,0-36.5-23.7-27.3-45.4
				c6.2-14.4,24.3-20.9,40.8-20.9c12.9,0,24.9,3.9,29.5,11c11,16.8,8,50-15.5,53.5c-7,1.1,20,141.6,51.6,149.6
				c0.3,0.1,0.7,0.1,1.1,0.1c21.1,0,62-150.9,57-155.3c-2.3-2-26-31.9-10.1-49.2C451.2,158.2,463.8,153.1,476,153.1 M476,150.1
				L476,150.1c-13.8,0-27,6.1-37.1,17.1c-4.5,4.9-6.6,11.1-6.2,18.3c0.8,15.6,12.8,31.2,15.9,34.6c0.5,4.8-5.1,31.4-15.8,66.4
				c-12,39.5-24,68.5-32.9,79.7c-3.4,4.2-5.2,4.5-5.7,4.5c-0.1,0-0.2,0-0.3,0c-3.9-1-10.3-5.4-18.4-20.9
				c-8.8-16.9-17.8-44-24.7-74.2c-5.9-26-7.9-44.1-7.3-48.9c8.5-1.8,15.3-7.4,19.2-16c5.7-12.8,4.4-30.4-3.1-41.9
				c-5-7.6-17.2-12.3-32-12.4c-9.1,0-18.2,1.9-25.5,5.3c-8.6,4-14.9,10-18,17.4c-2.7,6.4-4.2,16.8,4.5,30
				c6.8,10.2,18.4,19.2,25.2,19.5c2.8,3.9,9.7,26.2,16.3,61.2c7,36.8,9.9,67.5,7.8,82c-1,6.6-2.6,7.7-2.9,7.9
				c-2.4,1.2-5.2,1.8-8.3,1.8c-18.3,0-45.7-21.4-64.6-42.6c-12.7-14.2-16.8-22.7-16.8-24.7c4.5-7.2,7.7-19.1,4.8-29.9
				c-2.1-7.8-7.2-14.1-14.7-18c-11.2-5.9-21.4-8.9-30.2-8.9c-11.1,0-20.1,4.8-26,13.8c-5.4,8.2-8.2,20-8.2,34
				c0,15.7,7.5,24.9,13.9,29.9c7.1,5.6,16.8,8.9,26,8.9c4.9,0,9-0.9,12.1-2.7c4,0.3,19.2,11.8,35.6,30.5c18,20.6,29,40.3,29.3,52.6
				c0.7,19.1,11,34.4,29.8,44.3c11,5.8,30.7,12.7,61.8,12.7c32.1,0,65.3-7.8,84.5-19.9c7.4-4.6,16.8-12.8,19.9-25.2
				c1.3-5.1,1-9.2,0.7-11.5c15.8-13.3,55.8-44.3,71.4-44.3c2.8,0,3.6,1.1,3.9,1.5c6.1,8.2,18.8,14,30.9,14c8.3,0,20.1-2.6,29.3-14.9
				c9.2-12.3,12.6-26.1,9.4-37.9c-3.1-11.1-12.1-20-25.9-25.6c-5.4-2.2-10.8-3.3-16.1-3.3c-11.8,0-23.4,5.7-31,15.4
				c-4.5,5.7-6.6,11.4-5.7,15.5c0.4,1.6-0.5,3.9-2.6,6.5c-5.5,6.9-18.5,15.3-34,21.9c-16.8,7.1-34.2,11.2-47.6,11.2
				c-6.2,0-11.5-0.8-15.8-2.5c-3.6-1.4-5.9-4.8-7.1-10.6c-3.1-15.1,2.6-44.3,16-82.1c11.3-31.9,23.3-56.3,25.9-59.3
				c0.8-0.4,2.4-0.9,4.1-1.4c11.1-3.6,37-11.9,32.6-38.4C518,166.7,499.1,150.1,476,150.1L476,150.1z"/>
		</g>
		<path class="st2" d="M463.7,437c9.9,3,10.7,11.5-30.5,24.9c-22,7.2-41.3,7.7-29.8-4.1c4.3-4.4,16.1-4.6,28.1-8.9
			C445.1,444.1,458.9,435.5,463.7,437z"/>
	</g>
	<rect x="25.3" y="548.3" class="st3" width="749.4" height="98.6"/>
	<text transform="matrix(1 0 0 1 25.2957 611.847)"><tspan x="0" y="0" class="st4 st5 st6 st7">Jumping</tspan><tspan x="329.4" y="0" class="st0 st5 st6 st7">Green</tspan><tspan x="566.6" y="0" class="st0 st5 st6 st7">-</tspan></text>
</g>
</svg>
